/* XPM */
static char * signal_ok_xpm[] = {
"20 20 10 1",
" 	c None",
".	c #C6C6C6",
"+	c #CCCCCC",
"@	c #DBDBDB",
"#	c #A1A5B2",
"$	c #848DA5",
"%	c #D3D3D3",
"&	c #4A5B8C",
"*	c #677498",
"=	c #B0B2B8",
"               .+++.",
"               +@@@+",
"               +@@@+",
"               +@@@+",
"               +@@@+",
"          #$$$$%@@@+",
"          $&&&&@@@@+",
"          $&&&&@@@@+",
"          $&&&&@@@@+",
"          $&&&&@@@@+",
"     #$$$$*&&&&@@@@+",
"     $&&&&&&&&&@@@@+",
"     $&&&&&&&&&@@@@+",
"     $&&&&&&&&&@@@@+",
"     $&&&&&&&&&@@@@+",
"=$$$$*&&&&&&&&&@@@@+",
"$&&&&&&&&&&&&&&@@@@+",
"$&&&&&&&&&&&&&&@@@@+",
"$&&&&&&&&&&&&&&@@@@+",
"=$$$$$$$$$$$$$$++++."};
