/* XPM */
static char * signal_barely_xpm[] = {
"20 20 10 1",
" 	c None",
".	c #C6C6C6",
"+	c #CCCCCC",
"@	c #DBDBDB",
"#	c #D3D3D3",
"$	c #A9B099",
"%	c #95A173",
"&	c #6B8428",
"*	c #B4B7AC",
"=	c #80924D",
"               .+++.",
"               +@@@+",
"               +@@@+",
"               +@@@+",
"               +@@@+",
"          .++++#@@@+",
"          +@@@@@@@@+",
"          +@@@@@@@@+",
"          +@@@@@@@@+",
"          +@@@@@@@@+",
"     $%%%%#@@@@@@@@+",
"     %&&&&@@@@@@@@@+",
"     %&&&&@@@@@@@@@+",
"     %&&&&@@@@@@@@@+",
"     %&&&&@@@@@@@@@+",
"*%%%%=&&&&@@@@@@@@@+",
"%&&&&&&&&&@@@@@@@@@+",
"%&&&&&&&&&@@@@@@@@@+",
"%&&&&&&&&&@@@@@@@@@+",
"*%%%%%%%%%+++++++++."};
