/* XPM */
static char * signal_none_xpm[] = {
"20 20 6 1",
" 	c None",
".	c #C6C6C6",
"+	c #CCCCCC",
"@	c #DBDBDB",
"#	c #D3D3D3",
"$	c #C2C2C2",
"               .+++.",
"               +@@@+",
"               +@@@+",
"               +@@@+",
"               +@@@+",
"          .++++#@@@+",
"          +@@@@@@@@+",
"          +@@@@@@@@+",
"          +@@@@@@@@+",
"          +@@@@@@@@+",
"     .++++#@@@@@@@@+",
"     +@@@@@@@@@@@@@+",
"     +@@@@@@@@@@@@@+",
"     +@@@@@@@@@@@@@+",
"     +@@@@@@@@@@@@@+",
"$++++#@@@@@@@@@@@@@+",
"+@@@@@@@@@@@@@@@@@@+",
"+@@@@@@@@@@@@@@@@@@+",
"+@@@@@@@@@@@@@@@@@@+",
"$++++++++++++++++++."};
